<mxfile host="app.diagrams.net" modified="2021-10-16T23:25:52.158Z" agent="5.0 (Windows NT 10.0; Win64; x64) AppleWebKit/537.36 (KHTML, like Gecko) Chrome/94.0.4606.81 Safari/537.36" etag="8ZLJsNyqTD_lcXHTJvtP" version="15.5.2" type="github">
  <diagram id="2CTMX8wnvYPjpJqE7QB6" name="Page-1">
    <mxGraphModel dx="2249" dy="762" grid="1" gridSize="10" guides="1" tooltips="1" connect="1" arrows="1" fold="1" page="1" pageScale="1" pageWidth="827" pageHeight="1169" math="0" shadow="0">
      <root>
        <mxCell id="0" />
        <mxCell id="1" parent="0" />
        <mxCell id="m_9SDZH1rjd3z-bX8wkc-4" style="edgeStyle=orthogonalEdgeStyle;rounded=0;orthogonalLoop=1;jettySize=auto;html=1;exitX=1;exitY=0.5;exitDx=0;exitDy=0;entryX=0;entryY=0.5;entryDx=0;entryDy=0;" parent="1" source="m_9SDZH1rjd3z-bX8wkc-1" target="m_9SDZH1rjd3z-bX8wkc-3" edge="1">
          <mxGeometry relative="1" as="geometry" />
        </mxCell>
        <mxCell id="m_9SDZH1rjd3z-bX8wkc-21" style="edgeStyle=orthogonalEdgeStyle;rounded=0;orthogonalLoop=1;jettySize=auto;html=1;exitX=1;exitY=0.5;exitDx=0;exitDy=0;entryX=0;entryY=0.5;entryDx=0;entryDy=0;" parent="1" source="m_9SDZH1rjd3z-bX8wkc-1" target="m_9SDZH1rjd3z-bX8wkc-12" edge="1">
          <mxGeometry relative="1" as="geometry" />
        </mxCell>
        <mxCell id="m_9SDZH1rjd3z-bX8wkc-1" value="POPULATION" style="triangle;whiteSpace=wrap;html=1;strokeWidth=3;shadow=1;fillColor=#f5f5f5;strokeColor=#666666;fontColor=#333333;" parent="1" vertex="1">
          <mxGeometry y="270" width="105" height="140" as="geometry" />
        </mxCell>
        <mxCell id="m_9SDZH1rjd3z-bX8wkc-9" style="edgeStyle=orthogonalEdgeStyle;rounded=0;orthogonalLoop=1;jettySize=auto;html=1;exitX=1;exitY=0.5;exitDx=0;exitDy=0;entryX=0;entryY=0.75;entryDx=0;entryDy=0;" parent="1" source="m_9SDZH1rjd3z-bX8wkc-3" target="m_9SDZH1rjd3z-bX8wkc-5" edge="1">
          <mxGeometry relative="1" as="geometry" />
        </mxCell>
        <mxCell id="m_9SDZH1rjd3z-bX8wkc-3" value="Calculation" style="rounded=1;whiteSpace=wrap;html=1;shadow=1;strokeWidth=1;fillColor=#dae8fc;strokeColor=#6c8ebf;" parent="1" vertex="1">
          <mxGeometry x="150" y="80" width="120" height="60" as="geometry" />
        </mxCell>
        <mxCell id="m_9SDZH1rjd3z-bX8wkc-5" value="Each province has a real population number, aside from the vanilla pop units&lt;br&gt;&lt;br&gt;Popunits: Growth, migration and promotion &lt;b&gt;disabled&lt;/b&gt;&amp;nbsp;while culture and religion conversion are still &lt;b&gt;active&lt;/b&gt;&lt;br&gt;&lt;br&gt;Popunits will be calculated based on real population numbers&lt;br&gt;&lt;br&gt;A script system will calculate population growth, migration and class promotion" style="rounded=0;whiteSpace=wrap;html=1;shadow=1;strokeWidth=1;fillColor=#dae8fc;strokeColor=#6c8ebf;" parent="1" vertex="1">
          <mxGeometry x="320" y="20" width="470" height="120" as="geometry" />
        </mxCell>
        <mxCell id="m_9SDZH1rjd3z-bX8wkc-10" style="edgeStyle=orthogonalEdgeStyle;rounded=0;orthogonalLoop=1;jettySize=auto;html=1;exitX=0;exitY=0.5;exitDx=0;exitDy=0;entryX=0.04;entryY=1.025;entryDx=0;entryDy=0;entryPerimeter=0;shape=link;" parent="1" source="m_9SDZH1rjd3z-bX8wkc-7" target="m_9SDZH1rjd3z-bX8wkc-5" edge="1">
          <mxGeometry relative="1" as="geometry" />
        </mxCell>
        <mxCell id="m_9SDZH1rjd3z-bX8wkc-7" value="The conversion parabolic formula:&lt;br&gt;population = popunits x ( 1184.4 + 157.09 x popunits )" style="rounded=0;whiteSpace=wrap;html=1;shadow=1;strokeWidth=1;fillColor=#dae8fc;strokeColor=#6c8ebf;" parent="1" vertex="1">
          <mxGeometry x="360" y="170" width="390" height="60" as="geometry" />
        </mxCell>
        <mxCell id="m_9SDZH1rjd3z-bX8wkc-11" style="edgeStyle=orthogonalEdgeStyle;rounded=0;orthogonalLoop=1;jettySize=auto;html=1;exitX=0;exitY=0.5;exitDx=0;exitDy=0;shape=link;" parent="1" source="m_9SDZH1rjd3z-bX8wkc-8" edge="1">
          <mxGeometry relative="1" as="geometry">
            <mxPoint x="340" y="200" as="targetPoint" />
            <Array as="points">
              <mxPoint x="330" y="290" />
              <mxPoint x="330" y="200" />
            </Array>
          </mxGeometry>
        </mxCell>
        <mxCell id="m_9SDZH1rjd3z-bX8wkc-8" value="Example: The province called London has 1.101.324 people, but&amp;nbsp;&lt;br&gt;this changes each year with natural growth and sometimes at any&lt;br&gt;time with epidemics.&lt;br&gt;If all of them are of the same type (i.e. urban), at the end of the year the province will have 80 popunits of urban type." style="rounded=0;whiteSpace=wrap;html=1;shadow=1;strokeWidth=1;fillColor=#dae8fc;strokeColor=#6c8ebf;" parent="1" vertex="1">
          <mxGeometry x="360" y="250" width="390" height="80" as="geometry" />
        </mxCell>
        <mxCell id="m_9SDZH1rjd3z-bX8wkc-17" style="edgeStyle=orthogonalEdgeStyle;rounded=0;orthogonalLoop=1;jettySize=auto;html=1;exitX=1;exitY=0.5;exitDx=0;exitDy=0;entryX=0;entryY=0.5;entryDx=0;entryDy=0;" parent="1" source="m_9SDZH1rjd3z-bX8wkc-12" target="m_9SDZH1rjd3z-bX8wkc-13" edge="1">
          <mxGeometry relative="1" as="geometry" />
        </mxCell>
        <mxCell id="m_9SDZH1rjd3z-bX8wkc-18" style="edgeStyle=orthogonalEdgeStyle;rounded=0;orthogonalLoop=1;jettySize=auto;html=1;exitX=1;exitY=0.5;exitDx=0;exitDy=0;entryX=0;entryY=0.5;entryDx=0;entryDy=0;" parent="1" source="m_9SDZH1rjd3z-bX8wkc-12" target="m_9SDZH1rjd3z-bX8wkc-14" edge="1">
          <mxGeometry relative="1" as="geometry" />
        </mxCell>
        <mxCell id="m_9SDZH1rjd3z-bX8wkc-19" style="edgeStyle=orthogonalEdgeStyle;rounded=0;orthogonalLoop=1;jettySize=auto;html=1;exitX=1;exitY=0.5;exitDx=0;exitDy=0;entryX=0;entryY=0.5;entryDx=0;entryDy=0;" parent="1" source="m_9SDZH1rjd3z-bX8wkc-12" target="m_9SDZH1rjd3z-bX8wkc-15" edge="1">
          <mxGeometry relative="1" as="geometry" />
        </mxCell>
        <mxCell id="m_9SDZH1rjd3z-bX8wkc-20" style="edgeStyle=orthogonalEdgeStyle;rounded=0;orthogonalLoop=1;jettySize=auto;html=1;exitX=1;exitY=0.5;exitDx=0;exitDy=0;entryX=0;entryY=0.5;entryDx=0;entryDy=0;" parent="1" source="m_9SDZH1rjd3z-bX8wkc-12" target="m_9SDZH1rjd3z-bX8wkc-16" edge="1">
          <mxGeometry relative="1" as="geometry" />
        </mxCell>
        <mxCell id="m_9SDZH1rjd3z-bX8wkc-12" value="Pop types" style="rounded=1;whiteSpace=wrap;html=1;shadow=1;strokeWidth=1;fillColor=#d5e8d4;strokeColor=#82b366;" parent="1" vertex="1">
          <mxGeometry x="150" y="380" width="120" height="60" as="geometry" />
        </mxCell>
        <mxCell id="m_9SDZH1rjd3z-bX8wkc-13" value="Upper class" style="rounded=1;whiteSpace=wrap;html=1;shadow=1;strokeWidth=1;fillColor=#d5e8d4;strokeColor=#82b366;" parent="1" vertex="1">
          <mxGeometry x="310" y="340" width="80" height="30" as="geometry" />
        </mxCell>
        <mxCell id="m_9SDZH1rjd3z-bX8wkc-14" value="Urban" style="rounded=1;whiteSpace=wrap;html=1;shadow=1;strokeWidth=1;fillColor=#d5e8d4;strokeColor=#82b366;" parent="1" vertex="1">
          <mxGeometry x="310" y="380" width="80" height="30" as="geometry" />
        </mxCell>
        <mxCell id="m_9SDZH1rjd3z-bX8wkc-15" value="Rural" style="rounded=1;whiteSpace=wrap;html=1;shadow=1;strokeWidth=1;fillColor=#d5e8d4;strokeColor=#82b366;" parent="1" vertex="1">
          <mxGeometry x="310" y="420" width="80" height="30" as="geometry" />
        </mxCell>
        <mxCell id="m_9SDZH1rjd3z-bX8wkc-16" value="Slaves" style="rounded=1;whiteSpace=wrap;html=1;shadow=1;strokeWidth=1;fillColor=#d5e8d4;strokeColor=#82b366;" parent="1" vertex="1">
          <mxGeometry x="310" y="460" width="80" height="30" as="geometry" />
        </mxCell>
      </root>
    </mxGraphModel>
  </diagram>
</mxfile>
